<mxfile host="Electron" agent="Mozilla/5.0 (Macintosh; Intel Mac OS X 10_15_7) AppleWebKit/537.36 (KHTML, like Gecko) draw.io/24.7.17 Chrome/128.0.6613.36 Electron/32.0.1 Safari/537.36" version="24.7.17">
  <diagram name="Page-1" id="TZcqsUr8cHDNyKqeZQ8y">
    <mxGraphModel dx="1420" dy="863" grid="1" gridSize="10" guides="1" tooltips="1" connect="1" arrows="1" fold="1" page="1" pageScale="1" pageWidth="850" pageHeight="1100" math="0" shadow="0">
      <root>
        <mxCell id="0" />
        <mxCell id="1" parent="0" />
        <mxCell id="TX1-KdI-pZ0qAf0Ur0H_-18" value="StudentName" style="swimlane;fontStyle=0;childLayout=stackLayout;horizontal=1;startSize=30;horizontalStack=0;resizeParent=1;resizeParentMax=0;resizeLast=0;collapsible=1;marginBottom=0;whiteSpace=wrap;html=1;" vertex="1" parent="1">
          <mxGeometry x="10" y="300" width="140" height="300" as="geometry" />
        </mxCell>
        <mxCell id="TX1-KdI-pZ0qAf0Ur0H_-19" value="Alice Smtih" style="text;strokeColor=none;fillColor=none;align=left;verticalAlign=middle;spacingLeft=4;spacingRight=4;overflow=hidden;points=[[0,0.5],[1,0.5]];portConstraint=eastwest;rotatable=0;whiteSpace=wrap;html=1;" vertex="1" parent="TX1-KdI-pZ0qAf0Ur0H_-18">
          <mxGeometry y="30" width="140" height="30" as="geometry" />
        </mxCell>
        <mxCell id="TX1-KdI-pZ0qAf0Ur0H_-20" value="Alice Smith" style="text;strokeColor=none;fillColor=none;align=left;verticalAlign=middle;spacingLeft=4;spacingRight=4;overflow=hidden;points=[[0,0.5],[1,0.5]];portConstraint=eastwest;rotatable=0;whiteSpace=wrap;html=1;" vertex="1" parent="TX1-KdI-pZ0qAf0Ur0H_-18">
          <mxGeometry y="60" width="140" height="30" as="geometry" />
        </mxCell>
        <mxCell id="TX1-KdI-pZ0qAf0Ur0H_-21" value="Bob Johnson" style="text;strokeColor=none;fillColor=none;align=left;verticalAlign=middle;spacingLeft=4;spacingRight=4;overflow=hidden;points=[[0,0.5],[1,0.5]];portConstraint=eastwest;rotatable=0;whiteSpace=wrap;html=1;" vertex="1" parent="TX1-KdI-pZ0qAf0Ur0H_-18">
          <mxGeometry y="90" width="140" height="30" as="geometry" />
        </mxCell>
        <mxCell id="TX1-KdI-pZ0qAf0Ur0H_-22" value="Bob Johnson" style="text;strokeColor=none;fillColor=none;align=left;verticalAlign=middle;spacingLeft=4;spacingRight=4;overflow=hidden;points=[[0,0.5],[1,0.5]];portConstraint=eastwest;rotatable=0;whiteSpace=wrap;html=1;" vertex="1" parent="TX1-KdI-pZ0qAf0Ur0H_-18">
          <mxGeometry y="120" width="140" height="30" as="geometry" />
        </mxCell>
        <mxCell id="TX1-KdI-pZ0qAf0Ur0H_-23" value="Bob Johnson" style="text;strokeColor=none;fillColor=none;align=left;verticalAlign=middle;spacingLeft=4;spacingRight=4;overflow=hidden;points=[[0,0.5],[1,0.5]];portConstraint=eastwest;rotatable=0;whiteSpace=wrap;html=1;" vertex="1" parent="TX1-KdI-pZ0qAf0Ur0H_-18">
          <mxGeometry y="150" width="140" height="30" as="geometry" />
        </mxCell>
        <mxCell id="TX1-KdI-pZ0qAf0Ur0H_-24" value="Carol Lee" style="text;strokeColor=none;fillColor=none;align=left;verticalAlign=middle;spacingLeft=4;spacingRight=4;overflow=hidden;points=[[0,0.5],[1,0.5]];portConstraint=eastwest;rotatable=0;whiteSpace=wrap;html=1;" vertex="1" parent="TX1-KdI-pZ0qAf0Ur0H_-18">
          <mxGeometry y="180" width="140" height="30" as="geometry" />
        </mxCell>
        <mxCell id="TX1-KdI-pZ0qAf0Ur0H_-25" value="Carol Lee" style="text;strokeColor=none;fillColor=none;align=left;verticalAlign=middle;spacingLeft=4;spacingRight=4;overflow=hidden;points=[[0,0.5],[1,0.5]];portConstraint=eastwest;rotatable=0;whiteSpace=wrap;html=1;" vertex="1" parent="TX1-KdI-pZ0qAf0Ur0H_-18">
          <mxGeometry y="210" width="140" height="30" as="geometry" />
        </mxCell>
        <mxCell id="TX1-KdI-pZ0qAf0Ur0H_-26" value="Alice Smith" style="text;strokeColor=none;fillColor=none;align=left;verticalAlign=middle;spacingLeft=4;spacingRight=4;overflow=hidden;points=[[0,0.5],[1,0.5]];portConstraint=eastwest;rotatable=0;whiteSpace=wrap;html=1;" vertex="1" parent="TX1-KdI-pZ0qAf0Ur0H_-18">
          <mxGeometry y="240" width="140" height="30" as="geometry" />
        </mxCell>
        <mxCell id="TX1-KdI-pZ0qAf0Ur0H_-27" value="Alice Smith" style="text;strokeColor=none;fillColor=none;align=left;verticalAlign=middle;spacingLeft=4;spacingRight=4;overflow=hidden;points=[[0,0.5],[1,0.5]];portConstraint=eastwest;rotatable=0;whiteSpace=wrap;html=1;" vertex="1" parent="TX1-KdI-pZ0qAf0Ur0H_-18">
          <mxGeometry y="270" width="140" height="30" as="geometry" />
        </mxCell>
        <mxCell id="TX1-KdI-pZ0qAf0Ur0H_-28" value="Skills" style="swimlane;fontStyle=0;childLayout=stackLayout;horizontal=1;startSize=30;horizontalStack=0;resizeParent=1;resizeParentMax=0;resizeLast=0;collapsible=1;marginBottom=0;whiteSpace=wrap;html=1;" vertex="1" parent="1">
          <mxGeometry x="170" y="300" width="140" height="300" as="geometry" />
        </mxCell>
        <mxCell id="TX1-KdI-pZ0qAf0Ur0H_-29" value="Python" style="text;strokeColor=none;fillColor=none;align=left;verticalAlign=middle;spacingLeft=4;spacingRight=4;overflow=hidden;points=[[0,0.5],[1,0.5]];portConstraint=eastwest;rotatable=0;whiteSpace=wrap;html=1;" vertex="1" parent="TX1-KdI-pZ0qAf0Ur0H_-28">
          <mxGeometry y="30" width="140" height="30" as="geometry" />
        </mxCell>
        <mxCell id="TX1-KdI-pZ0qAf0Ur0H_-30" value="SQL" style="text;strokeColor=none;fillColor=none;align=left;verticalAlign=middle;spacingLeft=4;spacingRight=4;overflow=hidden;points=[[0,0.5],[1,0.5]];portConstraint=eastwest;rotatable=0;whiteSpace=wrap;html=1;" vertex="1" parent="TX1-KdI-pZ0qAf0Ur0H_-28">
          <mxGeometry y="60" width="140" height="30" as="geometry" />
        </mxCell>
        <mxCell id="TX1-KdI-pZ0qAf0Ur0H_-31" value="Java" style="text;strokeColor=none;fillColor=none;align=left;verticalAlign=middle;spacingLeft=4;spacingRight=4;overflow=hidden;points=[[0,0.5],[1,0.5]];portConstraint=eastwest;rotatable=0;whiteSpace=wrap;html=1;" vertex="1" parent="TX1-KdI-pZ0qAf0Ur0H_-28">
          <mxGeometry y="90" width="140" height="30" as="geometry" />
        </mxCell>
        <mxCell id="TX1-KdI-pZ0qAf0Ur0H_-32" value="C++" style="text;strokeColor=none;fillColor=none;align=left;verticalAlign=middle;spacingLeft=4;spacingRight=4;overflow=hidden;points=[[0,0.5],[1,0.5]];portConstraint=eastwest;rotatable=0;whiteSpace=wrap;html=1;" vertex="1" parent="TX1-KdI-pZ0qAf0Ur0H_-28">
          <mxGeometry y="120" width="140" height="30" as="geometry" />
        </mxCell>
        <mxCell id="TX1-KdI-pZ0qAf0Ur0H_-33" value="Java" style="text;strokeColor=none;fillColor=none;align=left;verticalAlign=middle;spacingLeft=4;spacingRight=4;overflow=hidden;points=[[0,0.5],[1,0.5]];portConstraint=eastwest;rotatable=0;whiteSpace=wrap;html=1;" vertex="1" parent="TX1-KdI-pZ0qAf0Ur0H_-28">
          <mxGeometry y="150" width="140" height="30" as="geometry" />
        </mxCell>
        <mxCell id="TX1-KdI-pZ0qAf0Ur0H_-34" value="Python" style="text;strokeColor=none;fillColor=none;align=left;verticalAlign=middle;spacingLeft=4;spacingRight=4;overflow=hidden;points=[[0,0.5],[1,0.5]];portConstraint=eastwest;rotatable=0;whiteSpace=wrap;html=1;" vertex="1" parent="TX1-KdI-pZ0qAf0Ur0H_-28">
          <mxGeometry y="180" width="140" height="30" as="geometry" />
        </mxCell>
        <mxCell id="TX1-KdI-pZ0qAf0Ur0H_-35" value="R" style="text;strokeColor=none;fillColor=none;align=left;verticalAlign=middle;spacingLeft=4;spacingRight=4;overflow=hidden;points=[[0,0.5],[1,0.5]];portConstraint=eastwest;rotatable=0;whiteSpace=wrap;html=1;" vertex="1" parent="TX1-KdI-pZ0qAf0Ur0H_-28">
          <mxGeometry y="210" width="140" height="30" as="geometry" />
        </mxCell>
        <mxCell id="TX1-KdI-pZ0qAf0Ur0H_-36" value="SQL" style="text;strokeColor=none;fillColor=none;align=left;verticalAlign=middle;spacingLeft=4;spacingRight=4;overflow=hidden;points=[[0,0.5],[1,0.5]];portConstraint=eastwest;rotatable=0;whiteSpace=wrap;html=1;" vertex="1" parent="TX1-KdI-pZ0qAf0Ur0H_-28">
          <mxGeometry y="240" width="140" height="30" as="geometry" />
        </mxCell>
        <mxCell id="TX1-KdI-pZ0qAf0Ur0H_-37" value="C#" style="text;strokeColor=none;fillColor=none;align=left;verticalAlign=middle;spacingLeft=4;spacingRight=4;overflow=hidden;points=[[0,0.5],[1,0.5]];portConstraint=eastwest;rotatable=0;whiteSpace=wrap;html=1;" vertex="1" parent="TX1-KdI-pZ0qAf0Ur0H_-28">
          <mxGeometry y="270" width="140" height="30" as="geometry" />
        </mxCell>
        <mxCell id="TX1-KdI-pZ0qAf0Ur0H_-38" value="InstructureName" style="swimlane;fontStyle=0;childLayout=stackLayout;horizontal=1;startSize=30;horizontalStack=0;resizeParent=1;resizeParentMax=0;resizeLast=0;collapsible=1;marginBottom=0;whiteSpace=wrap;html=1;" vertex="1" parent="1">
          <mxGeometry x="330" y="300" width="140" height="300" as="geometry" />
        </mxCell>
        <mxCell id="TX1-KdI-pZ0qAf0Ur0H_-39" value="Dr. John Doe" style="text;strokeColor=none;fillColor=none;align=left;verticalAlign=middle;spacingLeft=4;spacingRight=4;overflow=hidden;points=[[0,0.5],[1,0.5]];portConstraint=eastwest;rotatable=0;whiteSpace=wrap;html=1;" vertex="1" parent="TX1-KdI-pZ0qAf0Ur0H_-38">
          <mxGeometry y="30" width="140" height="30" as="geometry" />
        </mxCell>
        <mxCell id="TX1-KdI-pZ0qAf0Ur0H_-40" value="Dr. John Doe" style="text;strokeColor=none;fillColor=none;align=left;verticalAlign=middle;spacingLeft=4;spacingRight=4;overflow=hidden;points=[[0,0.5],[1,0.5]];portConstraint=eastwest;rotatable=0;whiteSpace=wrap;html=1;" vertex="1" parent="TX1-KdI-pZ0qAf0Ur0H_-38">
          <mxGeometry y="60" width="140" height="30" as="geometry" />
        </mxCell>
        <mxCell id="TX1-KdI-pZ0qAf0Ur0H_-48" value="Dr. John Doe" style="text;strokeColor=none;fillColor=none;align=left;verticalAlign=middle;spacingLeft=4;spacingRight=4;overflow=hidden;points=[[0,0.5],[1,0.5]];portConstraint=eastwest;rotatable=0;whiteSpace=wrap;html=1;" vertex="1" parent="TX1-KdI-pZ0qAf0Ur0H_-38">
          <mxGeometry y="90" width="140" height="30" as="geometry" />
        </mxCell>
        <mxCell id="TX1-KdI-pZ0qAf0Ur0H_-49" value="Dr. John Doe" style="text;strokeColor=none;fillColor=none;align=left;verticalAlign=middle;spacingLeft=4;spacingRight=4;overflow=hidden;points=[[0,0.5],[1,0.5]];portConstraint=eastwest;rotatable=0;whiteSpace=wrap;html=1;" vertex="1" parent="TX1-KdI-pZ0qAf0Ur0H_-38">
          <mxGeometry y="120" width="140" height="30" as="geometry" />
        </mxCell>
        <mxCell id="TX1-KdI-pZ0qAf0Ur0H_-50" value="Dr. John Doe" style="text;strokeColor=none;fillColor=none;align=left;verticalAlign=middle;spacingLeft=4;spacingRight=4;overflow=hidden;points=[[0,0.5],[1,0.5]];portConstraint=eastwest;rotatable=0;whiteSpace=wrap;html=1;" vertex="1" parent="TX1-KdI-pZ0qAf0Ur0H_-38">
          <mxGeometry y="150" width="140" height="30" as="geometry" />
        </mxCell>
        <mxCell id="TX1-KdI-pZ0qAf0Ur0H_-42" value="Dr. Emily Brown" style="text;strokeColor=none;fillColor=none;align=left;verticalAlign=middle;spacingLeft=4;spacingRight=4;overflow=hidden;points=[[0,0.5],[1,0.5]];portConstraint=eastwest;rotatable=0;whiteSpace=wrap;html=1;" vertex="1" parent="TX1-KdI-pZ0qAf0Ur0H_-38">
          <mxGeometry y="180" width="140" height="30" as="geometry" />
        </mxCell>
        <mxCell id="TX1-KdI-pZ0qAf0Ur0H_-51" value="Dr. Emily Brown" style="text;strokeColor=none;fillColor=none;align=left;verticalAlign=middle;spacingLeft=4;spacingRight=4;overflow=hidden;points=[[0,0.5],[1,0.5]];portConstraint=eastwest;rotatable=0;whiteSpace=wrap;html=1;" vertex="1" parent="TX1-KdI-pZ0qAf0Ur0H_-38">
          <mxGeometry y="210" width="140" height="30" as="geometry" />
        </mxCell>
        <mxCell id="TX1-KdI-pZ0qAf0Ur0H_-43" value="Dr. Jane White" style="text;strokeColor=none;fillColor=none;align=left;verticalAlign=middle;spacingLeft=4;spacingRight=4;overflow=hidden;points=[[0,0.5],[1,0.5]];portConstraint=eastwest;rotatable=0;whiteSpace=wrap;html=1;" vertex="1" parent="TX1-KdI-pZ0qAf0Ur0H_-38">
          <mxGeometry y="240" width="140" height="30" as="geometry" />
        </mxCell>
        <mxCell id="TX1-KdI-pZ0qAf0Ur0H_-52" value="Dr. Jane White" style="text;strokeColor=none;fillColor=none;align=left;verticalAlign=middle;spacingLeft=4;spacingRight=4;overflow=hidden;points=[[0,0.5],[1,0.5]];portConstraint=eastwest;rotatable=0;whiteSpace=wrap;html=1;" vertex="1" parent="TX1-KdI-pZ0qAf0Ur0H_-38">
          <mxGeometry y="270" width="140" height="30" as="geometry" />
        </mxCell>
        <mxCell id="TX1-KdI-pZ0qAf0Ur0H_-53" value="InstructureEmail" style="swimlane;fontStyle=0;childLayout=stackLayout;horizontal=1;startSize=30;horizontalStack=0;resizeParent=1;resizeParentMax=0;resizeLast=0;collapsible=1;marginBottom=0;whiteSpace=wrap;html=1;" vertex="1" parent="1">
          <mxGeometry x="490" y="300" width="160" height="300" as="geometry" />
        </mxCell>
        <mxCell id="TX1-KdI-pZ0qAf0Ur0H_-54" value="john.doe@university.edu" style="text;strokeColor=none;fillColor=none;align=left;verticalAlign=middle;spacingLeft=4;spacingRight=4;overflow=hidden;points=[[0,0.5],[1,0.5]];portConstraint=eastwest;rotatable=0;whiteSpace=wrap;html=1;" vertex="1" parent="TX1-KdI-pZ0qAf0Ur0H_-53">
          <mxGeometry y="30" width="160" height="30" as="geometry" />
        </mxCell>
        <mxCell id="TX1-KdI-pZ0qAf0Ur0H_-67" value="john.doe@university.edu" style="text;strokeColor=none;fillColor=none;align=left;verticalAlign=middle;spacingLeft=4;spacingRight=4;overflow=hidden;points=[[0,0.5],[1,0.5]];portConstraint=eastwest;rotatable=0;whiteSpace=wrap;html=1;" vertex="1" parent="TX1-KdI-pZ0qAf0Ur0H_-53">
          <mxGeometry y="60" width="160" height="30" as="geometry" />
        </mxCell>
        <mxCell id="TX1-KdI-pZ0qAf0Ur0H_-68" value="john.doe@university.edu" style="text;strokeColor=none;fillColor=none;align=left;verticalAlign=middle;spacingLeft=4;spacingRight=4;overflow=hidden;points=[[0,0.5],[1,0.5]];portConstraint=eastwest;rotatable=0;whiteSpace=wrap;html=1;" vertex="1" parent="TX1-KdI-pZ0qAf0Ur0H_-53">
          <mxGeometry y="90" width="160" height="30" as="geometry" />
        </mxCell>
        <mxCell id="TX1-KdI-pZ0qAf0Ur0H_-69" value="john.doe@university.edu" style="text;strokeColor=none;fillColor=none;align=left;verticalAlign=middle;spacingLeft=4;spacingRight=4;overflow=hidden;points=[[0,0.5],[1,0.5]];portConstraint=eastwest;rotatable=0;whiteSpace=wrap;html=1;" vertex="1" parent="TX1-KdI-pZ0qAf0Ur0H_-53">
          <mxGeometry y="120" width="160" height="30" as="geometry" />
        </mxCell>
        <mxCell id="TX1-KdI-pZ0qAf0Ur0H_-70" value="john.doe@university.edu" style="text;strokeColor=none;fillColor=none;align=left;verticalAlign=middle;spacingLeft=4;spacingRight=4;overflow=hidden;points=[[0,0.5],[1,0.5]];portConstraint=eastwest;rotatable=0;whiteSpace=wrap;html=1;" vertex="1" parent="TX1-KdI-pZ0qAf0Ur0H_-53">
          <mxGeometry y="150" width="160" height="30" as="geometry" />
        </mxCell>
        <mxCell id="TX1-KdI-pZ0qAf0Ur0H_-55" value="emily.brown@university.edu" style="text;strokeColor=none;fillColor=none;align=left;verticalAlign=middle;spacingLeft=4;spacingRight=4;overflow=hidden;points=[[0,0.5],[1,0.5]];portConstraint=eastwest;rotatable=0;whiteSpace=wrap;html=1;" vertex="1" parent="TX1-KdI-pZ0qAf0Ur0H_-53">
          <mxGeometry y="180" width="160" height="30" as="geometry" />
        </mxCell>
        <mxCell id="TX1-KdI-pZ0qAf0Ur0H_-71" value="emily.brown@university.edu" style="text;strokeColor=none;fillColor=none;align=left;verticalAlign=middle;spacingLeft=4;spacingRight=4;overflow=hidden;points=[[0,0.5],[1,0.5]];portConstraint=eastwest;rotatable=0;whiteSpace=wrap;html=1;" vertex="1" parent="TX1-KdI-pZ0qAf0Ur0H_-53">
          <mxGeometry y="210" width="160" height="30" as="geometry" />
        </mxCell>
        <mxCell id="TX1-KdI-pZ0qAf0Ur0H_-56" value="jane.white@university.edu" style="text;strokeColor=none;fillColor=none;align=left;verticalAlign=middle;spacingLeft=4;spacingRight=4;overflow=hidden;points=[[0,0.5],[1,0.5]];portConstraint=eastwest;rotatable=0;whiteSpace=wrap;html=1;" vertex="1" parent="TX1-KdI-pZ0qAf0Ur0H_-53">
          <mxGeometry y="240" width="160" height="30" as="geometry" />
        </mxCell>
        <mxCell id="TX1-KdI-pZ0qAf0Ur0H_-72" value="jane.white@university.edu" style="text;strokeColor=none;fillColor=none;align=left;verticalAlign=middle;spacingLeft=4;spacingRight=4;overflow=hidden;points=[[0,0.5],[1,0.5]];portConstraint=eastwest;rotatable=0;whiteSpace=wrap;html=1;" vertex="1" parent="TX1-KdI-pZ0qAf0Ur0H_-53">
          <mxGeometry y="270" width="160" height="30" as="geometry" />
        </mxCell>
        <mxCell id="TX1-KdI-pZ0qAf0Ur0H_-74" value="&lt;font style=&quot;font-size: 14px;&quot;&gt;1nf&lt;/font&gt;" style="text;html=1;align=center;verticalAlign=middle;whiteSpace=wrap;rounded=0;" vertex="1" parent="1">
          <mxGeometry x="10" y="260" width="60" height="30" as="geometry" />
        </mxCell>
        <UserObject label="&lt;table xmlns=&quot;http://www.w3.org/1999/xhtml&quot; cellspacing=&quot;0&quot; cellpadding=&quot;0&quot; dir=&quot;ltr&quot; border=&quot;1&quot; style=&quot;table-layout:fixed;font-size:10pt;font-family:Arial;width:0px;border-collapse:collapse;border:none&quot; data-sheets-root=&quot;1&quot; data-sheets-baot=&quot;1&quot;&gt;&lt;colgroup&gt;&lt;col width=&quot;118&quot;&gt;&lt;col width=&quot;100&quot;&gt;&lt;col width=&quot;161&quot;&gt;&lt;col width=&quot;301&quot;&gt;&lt;/colgroup&gt;&lt;tbody&gt;&lt;tr style=&quot;height:21px;&quot;&gt;&lt;td style=&quot;overflow:hidden;padding:2px 3px 2px 3px;vertical-align:bottom;background-color:#f9cb9c;font-weight:bold;text-align:center;&quot;&gt;StudentName&lt;/td&gt;&lt;td style=&quot;overflow:hidden;padding:2px 3px 2px 3px;vertical-align:bottom;background-color:#f9cb9c;font-weight:bold;text-align:center;&quot;&gt;Skills&lt;/td&gt;&lt;td style=&quot;overflow:hidden;padding:2px 3px 2px 3px;vertical-align:bottom;background-color:#f9cb9c;font-weight:bold;text-align:center;&quot;&gt;InstructorName&lt;/td&gt;&lt;td style=&quot;overflow:hidden;padding:2px 3px 2px 3px;vertical-align:bottom;background-color:#f9cb9c;font-weight:bold;text-align:center;&quot;&gt;InstructorEmail&lt;/td&gt;&lt;/tr&gt;&lt;tr style=&quot;height:21px;&quot;&gt;&lt;td style=&quot;overflow:hidden;padding:2px 3px 2px 3px;vertical-align:bottom;&quot;&gt;Alice Smith&lt;/td&gt;&lt;td style=&quot;overflow:hidden;padding:2px 3px 2px 3px;vertical-align:bottom;&quot;&gt;Python, SQL&lt;/td&gt;&lt;td style=&quot;overflow:hidden;padding:2px 3px 2px 3px;vertical-align:bottom;&quot;&gt;Dr. John Doe&lt;/td&gt;&lt;td style=&quot;overflow:hidden;padding:2px 3px 2px 3px;vertical-align:bottom;&quot;&gt;john.doe@university.edu&lt;/td&gt;&lt;/tr&gt;&lt;tr style=&quot;height:21px;&quot;&gt;&lt;td style=&quot;overflow:hidden;padding:2px 3px 2px 3px;vertical-align:bottom;&quot;&gt;Bob Johnson&lt;/td&gt;&lt;td style=&quot;overflow:hidden;padding:2px 3px 2px 3px;vertical-align:bottom;&quot;&gt;Java, C++, JavaScript&lt;/td&gt;&lt;td style=&quot;overflow:hidden;padding:2px 3px 2px 3px;vertical-align:bottom;&quot;&gt;Dr. John Doe&lt;/td&gt;&lt;td style=&quot;overflow:hidden;padding:2px 3px 2px 3px;vertical-align:bottom;&quot;&gt;john.doe@university.edu&lt;/td&gt;&lt;/tr&gt;&lt;tr style=&quot;height:21px;&quot;&gt;&lt;td style=&quot;overflow:hidden;padding:2px 3px 2px 3px;vertical-align:bottom;&quot;&gt;Carol Lee&lt;/td&gt;&lt;td style=&quot;overflow:hidden;padding:2px 3px 2px 3px;vertical-align:bottom;&quot;&gt;Python, R&lt;/td&gt;&lt;td style=&quot;overflow:hidden;padding:2px 3px 2px 3px;vertical-align:bottom;&quot;&gt;Dr. Emily Brown&lt;/td&gt;&lt;td style=&quot;overflow:hidden;padding:2px 3px 2px 3px;vertical-align:bottom;&quot;&gt;emily.brown@university.edu&lt;/td&gt;&lt;/tr&gt;&lt;tr style=&quot;height:21px;&quot;&gt;&lt;td style=&quot;overflow:hidden;padding:2px 3px 2px 3px;vertical-align:bottom;&quot;&gt;Alice Smith&lt;/td&gt;&lt;td style=&quot;overflow:hidden;padding:2px 3px 2px 3px;vertical-align:bottom;&quot;&gt;SQL, C#&lt;/td&gt;&lt;td style=&quot;overflow:hidden;padding:2px 3px 2px 3px;vertical-align:bottom;&quot;&gt;Dr. Jane White&lt;/td&gt;&lt;td style=&quot;overflow:hidden;padding:2px 3px 2px 3px;vertical-align:bottom;&quot;&gt;jane.white@university.edu&lt;/td&gt;&lt;/tr&gt;&lt;/tbody&gt;&lt;/table&gt;" link="&lt;table xmlns=&quot;http://www.w3.org/1999/xhtml&quot; cellspacing=&quot;0&quot; cellpadding=&quot;0&quot; dir=&quot;ltr&quot; border=&quot;1&quot; style=&quot;table-layout:fixed;font-size:10pt;font-family:Arial;width:0px;border-collapse:collapse;border:none&quot; data-sheets-root=&quot;1&quot; data-sheets-baot=&quot;1&quot;&gt;&lt;colgroup&gt;&lt;col width=&quot;118&quot;&gt;&lt;col width=&quot;100&quot;&gt;&lt;col width=&quot;161&quot;&gt;&lt;col width=&quot;301&quot;&gt;&lt;/colgroup&gt;&lt;tbody&gt;&lt;tr style=&quot;height:21px;&quot;&gt;&lt;td style=&quot;overflow:hidden;padding:2px 3px 2px 3px;vertical-align:bottom;background-color:#f9cb9c;font-weight:bold;text-align:center;&quot;&gt;StudentName&lt;/td&gt;&lt;td style=&quot;overflow:hidden;padding:2px 3px 2px 3px;vertical-align:bottom;background-color:#f9cb9c;font-weight:bold;text-align:center;&quot;&gt;Skills&lt;/td&gt;&lt;td style=&quot;overflow:hidden;padding:2px 3px 2px 3px;vertical-align:bottom;background-color:#f9cb9c;font-weight:bold;text-align:center;&quot;&gt;InstructorName&lt;/td&gt;&lt;td style=&quot;overflow:hidden;padding:2px 3px 2px 3px;vertical-align:bottom;background-color:#f9cb9c;font-weight:bold;text-align:center;&quot;&gt;InstructorEmail&lt;/td&gt;&lt;/tr&gt;&lt;tr style=&quot;height:21px;&quot;&gt;&lt;td style=&quot;overflow:hidden;padding:2px 3px 2px 3px;vertical-align:bottom;&quot;&gt;Alice Smith&lt;/td&gt;&lt;td style=&quot;overflow:hidden;padding:2px 3px 2px 3px;vertical-align:bottom;&quot;&gt;Python, SQL&lt;/td&gt;&lt;td style=&quot;overflow:hidden;padding:2px 3px 2px 3px;vertical-align:bottom;&quot;&gt;Dr. John Doe&lt;/td&gt;&lt;td style=&quot;overflow:hidden;padding:2px 3px 2px 3px;vertical-align:bottom;&quot;&gt;john.doe@university.edu&lt;/td&gt;&lt;/tr&gt;&lt;tr style=&quot;height:21px;&quot;&gt;&lt;td style=&quot;overflow:hidden;padding:2px 3px 2px 3px;vertical-align:bottom;&quot;&gt;Bob Johnson&lt;/td&gt;&lt;td style=&quot;overflow:hidden;padding:2px 3px 2px 3px;vertical-align:bottom;&quot;&gt;Java, C++, JavaScript&lt;/td&gt;&lt;td style=&quot;overflow:hidden;padding:2px 3px 2px 3px;vertical-align:bottom;&quot;&gt;Dr. John Doe&lt;/td&gt;&lt;td style=&quot;overflow:hidden;padding:2px 3px 2px 3px;vertical-align:bottom;&quot;&gt;john.doe@university.edu&lt;/td&gt;&lt;/tr&gt;&lt;tr style=&quot;height:21px;&quot;&gt;&lt;td style=&quot;overflow:hidden;padding:2px 3px 2px 3px;vertical-align:bottom;&quot;&gt;Carol Lee&lt;/td&gt;&lt;td style=&quot;overflow:hidden;padding:2px 3px 2px 3px;vertical-align:bottom;&quot;&gt;Python, R&lt;/td&gt;&lt;td style=&quot;overflow:hidden;padding:2px 3px 2px 3px;vertical-align:bottom;&quot;&gt;Dr. Emily Brown&lt;/td&gt;&lt;td style=&quot;overflow:hidden;padding:2px 3px 2px 3px;vertical-align:bottom;&quot;&gt;emily.brown@university.edu&lt;/td&gt;&lt;/tr&gt;&lt;tr style=&quot;height:21px;&quot;&gt;&lt;td style=&quot;overflow:hidden;padding:2px 3px 2px 3px;vertical-align:bottom;&quot;&gt;Alice Smith&lt;/td&gt;&lt;td style=&quot;overflow:hidden;padding:2px 3px 2px 3px;vertical-align:bottom;&quot;&gt;SQL, C#&lt;/td&gt;&lt;td style=&quot;overflow:hidden;padding:2px 3px 2px 3px;vertical-align:bottom;&quot;&gt;Dr. Jane White&lt;/td&gt;&lt;td style=&quot;overflow:hidden;padding:2px 3px 2px 3px;vertical-align:bottom;&quot;&gt;jane.white@university.edu&lt;/td&gt;&lt;/tr&gt;&lt;/tbody&gt;&lt;/table&gt;" id="TX1-KdI-pZ0qAf0Ur0H_-75">
          <mxCell style="text;whiteSpace=wrap;html=1;" vertex="1" parent="1">
            <mxGeometry x="20" y="40" width="700" height="150" as="geometry" />
          </mxCell>
        </UserObject>
      </root>
    </mxGraphModel>
  </diagram>
</mxfile>
